<?xml version="1.0" standalone="no"?>
<!DOCTYPE svg PUBLIC "-//W3C//DTD SVG 20010904//EN"
 "http://www.w3.org/TR/2001/REC-SVG-20010904/DTD/svg10.dtd">
<svg version="1.0" xmlns="http://www.w3.org/2000/svg"
 width="248.000000pt" height="203.000000pt" viewBox="0 0 248.000000 203.000000"
 preserveAspectRatio="xMidYMid meet">

<g transform="translate(0.000000,203.000000) scale(0.100000,-0.100000)"
fill="#000000" stroke="none">
<path d="M512 1791 c-9 -5 -3 -8 17 -9 17 0 31 4 31 9 0 11 -30 12 -48 0z"/>
<path d="M465 1766 c-19 -13 -18 -14 6 -13 17 1 25 7 22 15 -6 15 -5 15 -28
-2z"/>
<path d="M580 1766 c0 -9 -6 -13 -15 -10 -8 3 -23 -1 -35 -9 -19 -13 -19 -15
-4 -21 9 -4 27 0 39 8 14 10 26 11 32 5 6 -6 9 -2 8 13 -2 25 -25 38 -25 14z"/>
<path d="M423 1725 c0 -8 4 -12 9 -9 4 3 8 9 8 15 0 5 -4 9 -8 9 -5 0 -9 -7
-9 -15z"/>
<path d="M570 1708 c-5 -13 -9 -19 -9 -14 -1 5 -7 3 -15 -4 -10 -7 -15 -30
-14 -61 0 -39 4 -52 20 -60 11 -6 22 -8 26 -5 3 3 0 6 -6 6 -7 0 -12 9 -12 20
0 22 15 27 23 8 4 -10 8 -9 16 2 7 10 11 11 11 3 0 -26 20 -12 21 15 1 25 2
24 9 -8 5 -19 6 -39 3 -44 -4 -5 -1 -6 5 -2 7 4 12 20 12 37 0 16 5 29 10 29
6 0 10 -7 10 -15 0 -8 5 -15 10 -15 6 0 10 6 10 13 -1 17 -25 47 -39 47 -7 0
-9 4 -6 10 9 14 -13 50 -30 50 -8 0 -15 -5 -15 -11 0 -6 6 -9 14 -6 8 3 17 -1
20 -10 8 -19 8 -18 -21 -27 -17 -6 -23 -3 -23 8 0 9 -5 16 -11 16 -6 0 -8 9
-4 20 9 27 -3 25 -15 -2z m20 -38 c0 -5 -4 -10 -10 -10 -5 0 -10 5 -10 10 0 6
5 10 10 10 6 0 10 -4 10 -10z m-10 -35 c0 -8 -4 -15 -10 -15 -5 0 -7 7 -4 15
4 8 8 15 10 15 2 0 4 -7 4 -15z"/>
<path d="M456 1705 c-25 -19 -16 -19 20 0 16 8 22 15 14 15 -8 -1 -24 -7 -34
-15z"/>
<path d="M2072 1667 c-12 -11 -41 -30 -64 -41 -27 -13 -49 -33 -59 -54 -9 -18
-29 -44 -43 -57 -14 -13 -26 -32 -26 -42 0 -45 42 -220 60 -251 18 -30 20 -52
20 -266 0 -128 3 -254 6 -280 l7 -46 94 0 c133 0 180 24 220 115 26 60 23 230
-6 310 -30 85 -28 115 12 156 22 22 45 65 65 123 l33 88 -21 55 c-32 85 -55
125 -97 164 -34 33 -45 37 -109 42 -63 5 -73 3 -92 -16z m81 -24 c3 -5 8 -23
12 -40 5 -26 3 -33 -8 -33 -17 0 -58 60 -51 72 6 10 41 10 47 1z m71 -12 c17
-19 17 -20 -4 -31 -26 -14 -26 -13 -35 23 -9 33 13 37 39 8z m-106 -53 c13
-25 26 -62 29 -83 6 -34 4 -37 -18 -33 -21 3 -54 49 -71 99 -2 5 -20 4 -40 -3
-43 -13 -57 -6 -37 18 16 19 89 55 104 51 6 -2 20 -23 33 -49z m212 -77 l33
-99 -34 -62 c-19 -34 -46 -69 -62 -78 -25 -15 -30 -15 -54 -2 -31 18 -63 75
-70 128 -4 34 -1 42 22 60 36 29 64 28 110 -3 20 -15 38 -25 40 -23 1 2 -6 22
-16 44 l-19 41 -39 -10 c-34 -9 -43 -8 -61 8 -29 27 -25 37 28 67 79 46 85 43
122 -71z m-250 -24 c20 -37 22 -49 12 -56 -10 -6 -9 -11 4 -22 46 -38 57 -132
22 -174 -59 -68 -168 -2 -168 101 0 15 -10 53 -21 86 -12 32 -20 60 -18 62 20
18 108 56 124 54 12 -2 30 -21 45 -51z m67 -348 c47 -39 79 -173 69 -288 -12
-132 -48 -181 -131 -181 l-35 0 0 244 c0 187 3 245 13 249 16 5 65 -9 84 -24z"/>
<path d="M1972 1458 c-30 -30 -1 -77 32 -52 11 8 30 14 42 14 l23 0 -25 25
c-27 27 -53 32 -72 13z"/>
<path d="M390 1663 c1 -15 27 -43 33 -36 4 3 7 -1 7 -10 0 -9 7 -17 16 -17 14
0 14 -3 4 -15 -9 -10 -9 -15 -1 -15 6 0 10 -3 10 -7 -3 -20 2 -34 11 -28 6 3
10 1 10 -6 0 -7 3 -9 7 -5 5 4 1 13 -7 19 -16 12 -28 53 -13 44 4 -3 9 15 11
39 l2 44 -45 0 c-25 0 -45 -3 -45 -7z"/>
<path d="M690 1665 c0 -16 22 -45 30 -40 6 3 8 0 5 -7 -5 -14 21 -55 30 -46 7
7 -39 91 -53 96 -7 2 -12 1 -12 -3z"/>
<path d="M932 1610 c-40 -24 -67 -78 -58 -114 3 -14 22 -36 41 -49 48 -31 51
-53 10 -94 -30 -30 -64 -46 -50 -23 3 6 1 10 -4 10 -6 0 -11 -9 -11 -20 0 -12
7 -20 16 -20 24 0 94 74 94 98 0 12 -16 37 -35 56 -40 40 -43 58 -15 103 34
56 97 57 86 1 -3 -18 -2 -27 4 -23 14 9 12 69 -2 83 -17 17 -38 15 -76 -8z"/>
<path d="M1506 1573 c-16 -54 -42 -251 -37 -290 3 -29 20 -10 37 40 l18 52 8
-32 c6 -21 15 -33 26 -33 11 0 13 3 6 8 -6 4 -15 22 -19 40 -7 36 -19 41 -34
15 -15 -26 -13 -7 9 102 11 53 20 101 20 106 0 16 -29 9 -34 -8z"/>
<path d="M680 1570 c0 -5 5 -10 11 -10 5 0 7 5 4 10 -3 6 -8 10 -11 10 -2 0
-4 -4 -4 -10z"/>
<path d="M710 1570 c0 -5 5 -10 11 -10 5 0 7 5 4 10 -3 6 -8 10 -11 10 -2 0
-4 -4 -4 -10z"/>
<path d="M733 1543 c13 -12 -14 -31 -39 -27 -22 4 -24 2 -22 -36 1 -32 5 -40
20 -40 10 0 18 6 18 14 0 21 20 30 33 16 9 -10 9 -11 -1 -6 -7 4 -15 1 -18 -9
-9 -23 -2 -26 29 -10 15 8 27 10 27 4 0 -5 -5 -9 -12 -9 -6 0 -8 -3 -5 -7 4
-3 2 -12 -5 -20 -8 -11 -7 -12 6 -7 9 3 16 13 16 21 0 8 4 11 10 8 12 -7 4 13
-28 73 -12 23 -25 42 -29 42 -3 0 -3 -3 0 -7z"/>
<path d="M520 1528 c0 -5 4 -7 8 -4 5 3 8 -11 6 -32 -1 -25 -7 -36 -16 -34 -8
1 -6 -3 4 -11 10 -8 15 -17 11 -20 -3 -4 -1 -7 6 -7 7 0 11 -6 8 -12 -2 -7 8
-32 22 -55 l27 -43 39 21 c22 12 45 26 50 31 7 8 6 8 -4 3 -8 -4 -17 -2 -22 6
-7 12 -10 12 -21 0 -8 -9 -9 -11 -1 -7 6 3 14 3 17 -2 3 -5 -13 -8 -35 -8 -31
0 -39 4 -39 18 0 10 -3 17 -7 16 -10 -4 -13 5 -13 33 0 14 5 19 15 16 8 -4 17
-1 21 5 5 7 12 5 21 -7 12 -17 13 -15 15 21 1 37 1 37 5 6 6 -44 23 -31 23 18
0 25 -5 40 -16 44 -8 3 -12 2 -9 -4 3 -6 -3 -10 -15 -10 -12 0 -18 5 -15 10 3
6 0 10 -7 11 -7 1 -28 2 -45 4 -18 1 -33 -2 -33 -7z m57 -53 c0 -8 -4 -15 -9
-15 -4 0 -8 7 -8 15 0 8 4 15 8 15 5 0 9 -7 9 -15z"/>
<path d="M387 1513 c-2 -5 -2 -14 -1 -20 1 -7 2 -25 3 -39 0 -15 6 -24 13 -22
15 5 29 54 21 74 -5 15 -29 19 -36 7z"/>
<path d="M447 1513 c-3 -5 -4 -18 -2 -29 2 -10 4 -27 4 -37 1 -16 3 -17 16 -3
8 8 15 21 15 28 0 20 -26 53 -33 41z"/>
<path d="M341 1491 c-19 -12 -6 -62 14 -55 16 7 20 31 7 51 -5 7 -13 9 -21 4z"/>
<path d="M994 1463 c-11 -58 -10 -141 2 -153 18 -18 41 -1 60 43 l17 42 8 -30
c5 -16 16 -35 25 -42 13 -9 17 -29 18 -77 1 -36 5 -68 8 -72 15 -14 28 10 28
54 0 36 5 50 20 60 11 6 31 30 45 52 24 38 64 58 51 25 -8 -21 10 -64 30 -72
19 -7 45 21 43 46 0 14 -1 14 -6 1 -11 -31 -26 -42 -34 -28 -12 18 -11 58 0
58 34 0 54 67 27 89 -17 14 -43 -8 -52 -45 -8 -32 -34 -31 -34 1 0 15 -6 25
-14 25 -15 0 -62 -58 -53 -66 2 -2 12 7 21 21 18 27 36 33 36 11 0 -7 -16 -26
-35 -40 l-35 -27 4 48 c3 26 8 56 12 67 5 14 3 17 -12 14 -14 -2 -23 -20 -35
-68 -16 -63 -17 -64 -28 -37 -6 16 -11 41 -11 57 0 51 -16 41 -47 -30 -44 -98
-58 -93 -49 20 7 93 2 118 -10 53z m346 -41 c0 -18 -18 -42 -32 -42 -4 0 -5 7
-3 15 3 8 7 22 10 30 6 21 25 19 25 -3z m-136 -97 c-16 -24 -44 -34 -44 -16 0
9 40 40 53 40 4 1 0 -10 -9 -24z"/>
<path d="M1377 1483 c-12 -11 -8 -183 3 -183 11 0 14 7 24 53 4 15 16 37 27
48 11 11 19 23 16 25 -3 3 -14 -7 -26 -22 l-21 -27 0 57 c0 52 -7 66 -23 49z"/>
<path d="M1674 1467 c-9 -24 1 -172 11 -172 6 0 17 21 25 47 8 26 24 54 35 62
11 9 16 16 11 16 -6 0 -21 -10 -34 -22 l-25 -23 5 53 c4 40 2 52 -9 52 -7 0
-16 -6 -19 -13z"/>
<path d="M290 1461 c0 -5 -8 -12 -17 -14 -11 -3 -7 -5 10 -6 18 -1 27 4 27 14
0 8 -4 15 -10 15 -5 0 -10 -4 -10 -9z"/>
<path d="M486 1434 c-9 -23 -8 -24 12 -23 9 0 12 3 5 5 -7 3 -9 12 -6 20 3 8
3 14 0 14 -3 0 -8 -7 -11 -16z"/>
<path d="M1601 1432 c-6 -11 -15 -39 -20 -63 -11 -48 5 -89 34 -89 15 0 45 37
45 55 -1 5 -8 -2 -16 -17 -20 -37 -34 -35 -34 5 0 22 7 36 21 45 15 10 19 21
17 45 -4 37 -31 48 -47 19z m39 -26 c0 -24 -16 -43 -27 -32 -8 8 6 56 17 56 6
0 10 -11 10 -24z"/>
<path d="M1788 1423 c-35 -40 -25 -153 12 -153 36 0 69 87 54 144 -7 31 -43
35 -66 9z m52 -42 c0 -35 -19 -91 -31 -91 -12 0 -12 62 1 94 13 35 30 33 30
-3z"/>
<path d="M221 1421 c-7 -5 -12 -13 -10 -18 2 -5 12 -1 22 9 18 19 12 24 -12 9z"/>
<path d="M300 1420 c0 -5 5 -10 11 -10 5 0 7 5 4 10 -3 6 -8 10 -11 10 -2 0
-4 -4 -4 -10z"/>
<path d="M375 1395 c3 -22 10 -44 16 -50 7 -7 8 -1 3 20 -13 55 -24 73 -19 30z"/>
<path d="M723 1408 c3 -9 1 -19 -6 -22 -9 -3 -9 -5 0 -5 18 -1 23 13 11 29 -8
12 -9 12 -5 -2z"/>
<path d="M182 1396 c4 -5 3 -19 -2 -32 -11 -29 2 -70 32 -98 20 -18 20 -18 15
0 -3 10 -8 34 -12 52 -4 17 -11 32 -17 32 -6 0 -8 9 -5 20 3 11 0 23 -6 27 -7
3 -9 3 -5 -1z"/>
<path d="M426 1374 c-11 -8 -16 -14 -10 -14 13 0 39 18 34 24 -3 2 -14 -2 -24
-10z"/>
<path d="M220 1366 c0 -6 8 -22 17 -35 10 -16 12 -21 3 -16 -10 6 -12 4 -7 -9
4 -10 7 -20 7 -22 0 -2 6 -4 14 -4 19 0 26 22 19 63 -4 28 -10 35 -29 35 -13
0 -24 -6 -24 -12z"/>
<path d="M722 1361 c-18 -9 -30 -20 -27 -23 4 -3 -2 -5 -12 -4 -10 0 -17 -4
-16 -11 2 -7 -3 -10 -11 -7 -8 3 -17 1 -21 -5 -11 -19 26 -12 82 15 29 15 56
30 58 34 10 17 -22 17 -53 1z"/>
<path d="M293 1334 c8 -45 12 -50 32 -34 20 17 19 40 -2 56 -29 22 -36 16 -30
-22z"/>
<path d="M350 1353 c0 -25 15 -38 25 -22 4 6 0 18 -9 27 -15 15 -16 15 -16 -5z"/>
<path d="M130 1339 c0 -6 5 -19 10 -30 8 -15 7 -21 -5 -25 -8 -3 -12 -10 -9
-16 4 -5 10 -5 17 1 7 5 15 10 20 10 11 1 10 9 -3 41 -12 29 -30 41 -30 19z"/>
<path d="M96 1253 c-6 -14 -5 -15 5 -6 7 7 10 15 7 18 -3 3 -9 -2 -12 -12z"/>
<path d="M431 1242 c-45 -22 -71 -59 -78 -109 -8 -63 13 -109 93 -195 41 -45
76 -92 79 -109 14 -63 -23 -129 -72 -129 -16 0 -37 13 -59 35 -30 32 -36 34
-54 23 -25 -16 -25 -15 0 -56 26 -42 61 -55 133 -50 125 9 194 126 138 236
-11 21 -49 65 -85 99 -97 90 -116 158 -58 203 35 28 59 25 93 -11 25 -27 31
-30 47 -18 9 7 18 14 20 15 1 1 -2 13 -8 26 -26 55 -120 76 -189 40z"/>
<path d="M121 1239 c-1 -18 26 -44 87 -82 45 -29 52 -43 25 -51 -14 -4 -14 -4
2 -3 40 4 27 34 -34 73 -33 21 -65 48 -70 59 -7 15 -10 16 -10 4z"/>
<path d="M90 1227 c0 -22 37 -76 64 -95 41 -28 57 -29 21 0 -15 11 -40 39 -56
61 -16 22 -29 37 -29 34z"/>
<path d="M841 1209 c-155 -48 -238 -216 -184 -375 23 -68 109 -153 181 -178
64 -22 179 -19 230 8 29 15 35 15 62 1 37 -19 110 -20 110 -2 0 8 -18 22 -40
32 -22 10 -40 22 -40 27 0 5 12 25 27 45 53 69 60 202 15 289 -25 49 -84 106
-139 134 -49 25 -169 35 -222 19z m194 -63 c154 -72 201 -255 98 -375 -109
-128 -308 -113 -398 30 -80 125 -34 283 100 345 66 31 134 31 200 0z"/>
<path d="M852 1089 c-85 -43 -120 -139 -82 -228 49 -112 182 -152 282 -84 93
63 102 197 19 276 -63 60 -144 73 -219 36z m168 -48 c112 -82 61 -256 -75
-253 -155 2 -200 204 -60 268 37 17 101 10 135 -15z"/>
<path d="M931 998 c-11 -35 -16 -38 -49 -38 l-37 -1 29 -23 c29 -24 30 -33 10
-80 -6 -17 -4 -17 24 4 30 22 32 22 57 6 33 -22 37 -18 26 21 -8 27 -6 32 23
49 l31 19 -39 5 c-34 4 -41 9 -51 40 l-12 35 -12 -37z"/>
<path d="M1261 993 c1 -262 7 -308 44 -341 26 -22 35 -24 122 -20 93 3 95 4
124 36 l29 33 -2 246 -3 246 -29 4 -29 4 6 -245 c7 -238 6 -247 -13 -266 -32
-32 -95 -22 -127 19 -8 11 -12 62 -13 156 0 77 -3 184 -7 238 l-6 97 -49 0
-48 0 1 -207z"/>
<path d="M1727 1193 c-3 -4 -28 -123 -56 -263 -29 -140 -54 -265 -57 -277 -4
-20 0 -23 24 -23 27 0 29 4 43 63 l14 62 55 0 55 0 13 -62 14 -63 49 0 c46 0
49 2 44 23 -3 12 -28 137 -56 277 -28 140 -53 257 -55 259 -8 8 -82 12 -87 4z"/>
<path d="M0 135 l0 -135 1240 0 1240 0 0 135 0 135 -1240 0 -1240 0 0 -135z
m430 115 c-14 -4 -51 -14 -83 -21 -43 -9 -54 -15 -43 -21 20 -11 21 -28 1 -28
-8 0 -15 -4 -15 -9 0 -5 7 -11 15 -15 20 -7 19 -52 -1 -60 -27 -10 -44 -7 -44
9 0 8 7 15 17 15 15 0 15 1 0 18 -20 22 -22 43 -4 61 6 8 -11 1 -40 -14 -29
-15 -50 -32 -47 -37 3 -4 11 -5 17 -1 34 21 51 8 41 -32 -8 -31 -22 -32 -34
-3 -9 23 -9 23 -9 2 -1 -18 -7 -22 -41 -22 -36 -1 -40 2 -40 24 0 13 -4 24
-10 24 -5 0 -10 -16 -10 -35 0 -19 -4 -35 -9 -35 -13 0 -20 83 -8 98 13 16 27
15 27 -2 0 -19 52 -15 68 7 29 38 165 85 247 85 29 0 29 0 5 -8z m147 -21 c38
-14 73 -48 73 -72 0 -56 -105 -124 -203 -132 l-52 -5 45 14 c163 49 224 121
143 169 -18 10 -54 22 -80 27 l-48 8 47 1 c26 0 59 -4 75 -10z m-197 -67 c0
-6 -6 -12 -12 -15 -10 -3 -10 -9 0 -26 17 -29 15 -33 -10 -29 -18 2 -24 12
-29 41 -8 47 13 77 37 53 8 -8 14 -19 14 -24z m393 12 c-3 -8 -12 -14 -21 -14
-12 0 -11 -4 6 -20 23 -22 26 -29 16 -54 -8 -21 -64 -22 -64 -1 0 9 9 15 23
16 l22 0 -22 16 c-13 9 -23 26 -23 40 0 15 8 27 23 32 28 11 47 4 40 -15z
m257 0 c0 -8 -6 -14 -12 -14 -7 0 -5 -5 5 -11 21 -12 22 -29 2 -29 -8 0 -15
-4 -15 -10 0 -5 7 -10 15 -10 8 0 15 -7 15 -15 0 -10 -10 -15 -29 -15 -25 0
-29 4 -32 33 -6 52 1 85 19 90 22 5 32 -1 32 -19z m151 -7 c1 -20 2 -21 6 -2
6 22 23 36 35 29 4 -3 8 -32 8 -65 0 -52 -2 -59 -20 -59 -15 0 -20 7 -21 28
l-2 27 -4 -27 c-2 -16 -11 -28 -19 -28 -10 0 -14 14 -14 58 0 32 3 62 6 65 11
11 24 -3 25 -26z m129 12 c0 -4 -7 -12 -16 -17 -15 -8 -15 -10 0 -15 20 -8 21
-27 1 -27 -8 0 -15 -4 -15 -10 0 -5 7 -10 15 -10 8 0 15 -7 15 -15 0 -10 -10
-15 -30 -15 -30 0 -30 0 -30 58 0 32 2 61 5 64 8 8 55 -3 55 -13z m186 -24
c16 -62 -28 -113 -66 -75 -41 41 -7 135 40 110 11 -6 23 -22 26 -35z m164 30
c0 -8 -8 -15 -17 -15 -14 0 -13 -3 5 -23 35 -38 23 -77 -24 -77 -31 0 -41 20
-15 27 25 6 27 16 6 33 -18 15 -20 56 -2 63 25 11 47 7 47 -8z m51 -15 l7 -25
1 28 c1 20 6 27 22 27 18 0 20 -4 15 -27 -23 -92 -27 -103 -45 -103 -14 0 -21
13 -30 57 -14 73 -14 75 6 71 9 -2 20 -14 24 -28z m129 15 c0 -8 -7 -15 -15
-15 -8 0 -20 -10 -26 -22 -9 -19 -9 -21 2 -10 25 23 39 14 39 -28 0 -36 -3
-40 -24 -40 -53 0 -76 70 -36 110 24 24 60 27 60 5z m110 0 c0 -8 -7 -15 -15
-15 -8 0 -15 -4 -15 -10 0 -5 7 -10 15 -10 8 0 15 -7 15 -15 0 -8 -7 -15 -15
-15 -8 0 -15 -4 -15 -10 0 -5 9 -10 20 -10 11 0 20 -7 20 -15 0 -10 -11 -15
-35 -15 l-35 0 0 65 0 65 30 0 c20 0 30 -5 30 -15z m85 -2 c16 -16 18 -16 27
0 11 21 58 23 58 2 0 -8 -7 -15 -15 -15 -8 0 -15 -4 -15 -9 0 -5 7 -11 15 -15
20 -7 20 -62 -1 -70 -28 -11 -54 -6 -54 9 0 8 9 15 20 15 26 0 25 3 -5 36 -18
20 -25 23 -25 11 0 -9 -9 -21 -20 -27 -11 -6 -20 -20 -20 -30 0 -11 -6 -20
-14 -20 -10 0 -15 17 -18 61 -1 33 -1 63 1 65 11 10 51 2 66 -13z m189 11 c24
-9 21 -61 -4 -74 -11 -6 -20 -20 -20 -30 0 -13 -7 -20 -20 -20 -18 0 -20 7
-20 58 0 32 3 62 7 65 8 9 36 9 57 1z m74 -21 l10 -28 1 28 c1 17 6 27 16 27
12 0 15 -14 15 -65 0 -52 -3 -65 -15 -65 -9 0 -20 10 -25 23 l-9 22 0 -22 c-1
-14 -7 -23 -16 -23 -12 0 -15 14 -15 65 0 49 3 65 14 65 8 0 19 -12 24 -27z
m132 13 c0 -7 -9 -16 -20 -19 -15 -4 -20 -13 -19 -39 2 -31 2 -31 6 -5 7 43
37 32 41 -16 3 -35 2 -37 -27 -37 -55 0 -81 70 -41 110 23 23 60 27 60 6z
m-1610 -41 c0 -25 5 -45 10 -45 6 0 10 20 10 45 0 33 4 45 15 45 21 0 21 -93
-1 -114 -18 -19 -20 -19 -45 -6 -15 9 -19 22 -19 65 0 42 3 55 15 55 11 0 15
-12 15 -45z m138 13 c2 -19 -3 -31 -17 -40 -12 -7 -21 -21 -21 -30 0 -11 -8
-18 -20 -18 -18 0 -20 7 -20 61 l0 60 38 -3 c32 -3 37 -7 40 -30z m169 -35 c1
-49 -1 -63 -13 -63 -8 0 -15 10 -15 23 -1 16 -2 18 -6 5 -2 -10 -13 -18 -24
-18 -17 0 -19 7 -19 61 l0 60 38 -3 37 -3 2 -62z m269 17 c1 -25 3 -51 5 -59
2 -8 -4 -17 -13 -19 -13 -2 -18 3 -19 20 -1 17 -3 18 -6 6 -2 -10 -13 -18 -24
-18 -17 0 -19 7 -19 61 l0 60 38 -3 c37 -3 37 -3 38 -48z m-962 34 c9 -3 16
-14 17 -23 0 -11 3 -10 9 6 8 21 50 30 50 11 0 -5 9 -4 21 2 15 9 24 8 35 -1
18 -15 18 -49 -1 -49 -9 0 -12 -6 -9 -15 4 -9 0 -15 -8 -15 -20 0 -38 21 -38
43 0 10 -4 15 -10 12 -5 -3 -10 -17 -10 -31 0 -15 -6 -24 -15 -24 -8 0 -15 8
-15 18 -1 16 -1 16 -11 0 -14 -25 -48 -22 -58 5 -9 24 -4 48 13 59 13 9 11 9
30 2z m-224 -110 c18 -9 65 -19 104 -22 56 -4 65 -7 46 -14 -47 -17 -175 10
-195 42 -9 15 7 12 45 -6z"/>
<path d="M1447 148 c-2 -7 -1 -22 4 -33 6 -16 8 -14 8 13 1 33 -4 41 -12 20z"/>
<path d="M2001 154 c0 -11 3 -14 6 -6 3 7 2 16 -1 19 -3 4 -6 -2 -5 -13z"/>
</g>
</svg>
